<svg width="167" height="58" viewBox="0 0 167 58" fill="none" xmlns="http://www.w3.org/2000/svg">
<path fill-rule="evenodd" clip-rule="evenodd" d="M29 0V11.6C19.3902 11.6 11.6 19.3902 11.6 29C11.6 38.6098 19.3902 46.4 29 46.4C38.6098 46.4 46.4 38.6098 46.4 29H58C58 45.0163 45.0163 58 29 58C12.9837 58 0 45.0163 0 29C0 12.9837 12.9837 0 29 0Z" fill="#5528FF"/>
<path fill-rule="evenodd" clip-rule="evenodd" d="M29 5.80005H52.2V29H40.6V17.4001H29V5.80005Z" fill="#5528FF"/>
<path d="M98.1718 26.976C99.5798 26.976 100.732 27.408 101.628 28.272C102.54 29.136 102.996 30.272 102.996 31.68V39H99.5878V32.376C99.5878 31.672 99.4038 31.12 99.0358 30.72C98.6678 30.304 98.1718 30.096 97.5478 30.096C97.1318 30.096 96.7238 30.216 96.3238 30.456C95.9398 30.68 95.6438 30.976 95.4358 31.344V39H92.0518V32.376C92.0518 31.688 91.8678 31.136 91.4998 30.72C91.1318 30.304 90.6598 30.096 90.0838 30.096C89.6038 30.096 89.1718 30.216 88.7878 30.456C88.4038 30.696 88.1158 31.016 87.9238 31.416V39H84.5398V27.216H87.9238V28.56C88.6758 27.504 89.7958 26.976 91.2838 26.976C92.8038 26.976 93.8998 27.528 94.5718 28.632C94.9718 28.168 95.4838 27.776 96.1078 27.456C96.7478 27.136 97.4358 26.976 98.1718 26.976ZM113.848 27.216H117.232V39H113.848V37.608C113.56 38.088 113.088 38.48 112.432 38.784C111.792 39.088 111.104 39.24 110.368 39.24C108.832 39.24 107.528 38.648 106.456 37.464C105.4 36.264 104.872 34.808 104.872 33.096C104.872 31.384 105.4 29.936 106.456 28.752C107.528 27.568 108.832 26.976 110.368 26.976C111.104 26.976 111.792 27.128 112.432 27.432C113.088 27.736 113.56 28.128 113.848 28.608V27.216ZM111.112 36.024C111.688 36.024 112.224 35.888 112.72 35.616C113.216 35.344 113.592 34.992 113.848 34.56V31.68C113.592 31.232 113.216 30.872 112.72 30.6C112.224 30.312 111.688 30.168 111.112 30.168C110.28 30.168 109.584 30.448 109.024 31.008C108.464 31.568 108.184 32.264 108.184 33.096C108.184 33.928 108.464 34.624 109.024 35.184C109.584 35.744 110.28 36.024 111.112 36.024ZM133.234 26.976C134.642 26.976 135.794 27.408 136.69 28.272C137.602 29.136 138.058 30.272 138.058 31.68V39H134.65V32.376C134.65 31.672 134.466 31.12 134.098 30.72C133.73 30.304 133.234 30.096 132.61 30.096C132.194 30.096 131.786 30.216 131.386 30.456C131.002 30.68 130.706 30.976 130.498 31.344V39H127.114V32.376C127.114 31.688 126.93 31.136 126.562 30.72C126.194 30.304 125.722 30.096 125.146 30.096C124.666 30.096 124.234 30.216 123.85 30.456C123.466 30.696 123.178 31.016 122.986 31.416V39H119.602V27.216H122.986V28.56C123.738 27.504 124.858 26.976 126.346 26.976C127.866 26.976 128.962 27.528 129.634 28.632C130.034 28.168 130.546 27.776 131.17 27.456C131.81 27.136 132.498 26.976 133.234 26.976ZM146.054 26.976C147.782 26.976 149.23 27.568 150.398 28.752C151.582 29.92 152.174 31.376 152.174 33.12C152.174 34.864 151.582 36.32 150.398 37.488C149.23 38.656 147.782 39.24 146.054 39.24C144.31 39.24 142.854 38.656 141.686 37.488C140.518 36.32 139.934 34.864 139.934 33.12C139.934 31.376 140.518 29.92 141.686 28.752C142.854 27.568 144.31 26.976 146.054 26.976ZM148.046 31.056C147.518 30.496 146.854 30.216 146.054 30.216C145.254 30.216 144.582 30.496 144.038 31.056C143.51 31.6 143.246 32.288 143.246 33.12C143.246 33.936 143.51 34.624 144.038 35.184C144.582 35.728 145.254 36 146.054 36C146.854 36 147.518 35.728 148.046 35.184C148.59 34.624 148.862 33.936 148.862 33.12C148.862 32.288 148.59 31.6 148.046 31.056ZM160.679 26.976C162.167 26.976 163.335 27.456 164.183 28.416C165.047 29.36 165.479 30.664 165.479 32.328V39H162.095V32.904C162.095 32.088 161.887 31.456 161.471 31.008C161.071 30.56 160.519 30.336 159.815 30.336C159.351 30.336 158.903 30.464 158.471 30.72C158.039 30.96 157.703 31.28 157.463 31.68V39H154.079V27.216H157.463V28.608C157.783 28.112 158.231 27.72 158.807 27.432C159.399 27.128 160.023 26.976 160.679 26.976Z" fill="#202020"/>
</svg>
